<mxfile host="app.diagrams.net" modified="2024-03-07T11:12:50.642Z" agent="Mozilla/5.0 (Windows NT 10.0; Win64; x64) AppleWebKit/537.36 (KHTML, like Gecko) Chrome/123.0.0.0 Safari/537.36 Edg/123.0.0.0" etag="IxdAnNjIMhR4mL7Kh5l3" version="24.0.2" type="device">
  <diagram name="Page-1" id="4HCcAvGQDcSy1-1r2ltH">
    <mxGraphModel dx="1980" dy="2221" grid="1" gridSize="10" guides="1" tooltips="1" connect="1" arrows="1" fold="1" page="1" pageScale="1" pageWidth="850" pageHeight="1100" math="0" shadow="0">
      <root>
        <mxCell id="0" />
        <mxCell id="1" parent="0" />
        <mxCell id="B8SoWppWivi9vdMXzgWj-35" value="" style="edgeStyle=orthogonalEdgeStyle;rounded=0;orthogonalLoop=1;jettySize=auto;html=1;" parent="1" edge="1">
          <mxGeometry relative="1" as="geometry">
            <mxPoint x="155" y="410" as="sourcePoint" />
            <mxPoint x="155" y="500" as="targetPoint" />
          </mxGeometry>
        </mxCell>
        <mxCell id="B8SoWppWivi9vdMXzgWj-5" value="Elev" style="shape=umlActor;verticalLabelPosition=bottom;verticalAlign=top;html=1;outlineConnect=0;" parent="1" vertex="1">
          <mxGeometry x="60" y="80" width="190" height="280" as="geometry" />
        </mxCell>
        <mxCell id="B8SoWppWivi9vdMXzgWj-6" value="Administrator&lt;div&gt;&lt;br&gt;&lt;/div&gt;" style="shape=umlActor;verticalLabelPosition=bottom;verticalAlign=top;html=1;outlineConnect=0;" parent="1" vertex="1">
          <mxGeometry x="550" y="720" width="240" height="280" as="geometry" />
        </mxCell>
        <mxCell id="B8SoWppWivi9vdMXzgWj-7" value="CRUD elevi&lt;br&gt;update , delete&amp;nbsp;" style="ellipse;whiteSpace=wrap;html=1;verticalAlign=top;" parent="1" vertex="1">
          <mxGeometry x="315" y="1010" width="170" height="40" as="geometry" />
        </mxCell>
        <mxCell id="B8SoWppWivi9vdMXzgWj-10" value="Aproba cerere" style="ellipse;whiteSpace=wrap;html=1;verticalAlign=top;" parent="1" vertex="1">
          <mxGeometry x="490" y="610" width="130" height="40" as="geometry" />
        </mxCell>
        <mxCell id="B8SoWppWivi9vdMXzgWj-12" value="Deseneaza unui cerc" style="ellipse;whiteSpace=wrap;html=1;verticalAlign=top;" parent="1" vertex="1">
          <mxGeometry x="600" y="10" width="185" height="40" as="geometry" />
        </mxCell>
        <mxCell id="B8SoWppWivi9vdMXzgWj-17" value="" style="endArrow=classic;html=1;rounded=0;" parent="1" edge="1">
          <mxGeometry width="50" height="50" relative="1" as="geometry">
            <mxPoint x="197.5" y="50" as="sourcePoint" />
            <mxPoint x="330" y="-90" as="targetPoint" />
          </mxGeometry>
        </mxCell>
        <mxCell id="B8SoWppWivi9vdMXzgWj-18" value="Vizualizare informatii cerc" style="ellipse;whiteSpace=wrap;html=1;" parent="1" vertex="1">
          <mxGeometry x="305" y="-160" width="145" height="80" as="geometry" />
        </mxCell>
        <mxCell id="B8SoWppWivi9vdMXzgWj-19" value="Vizualizare toti utilizatorii" style="ellipse;whiteSpace=wrap;html=1;verticalAlign=top;" parent="1" vertex="1">
          <mxGeometry x="605" y="450" width="130" height="40" as="geometry" />
        </mxCell>
        <mxCell id="B8SoWppWivi9vdMXzgWj-26" value="Vizualizare cereri" style="ellipse;whiteSpace=wrap;html=1;" parent="1" vertex="1">
          <mxGeometry x="365" y="850" width="120" height="60" as="geometry" />
        </mxCell>
        <mxCell id="B8SoWppWivi9vdMXzgWj-27" value="" style="endArrow=classic;html=1;rounded=0;" parent="1" edge="1">
          <mxGeometry width="50" height="50" relative="1" as="geometry">
            <mxPoint x="540" y="750" as="sourcePoint" />
            <mxPoint x="440" y="690" as="targetPoint" />
          </mxGeometry>
        </mxCell>
        <mxCell id="B8SoWppWivi9vdMXzgWj-29" value="Logare" style="ellipse;whiteSpace=wrap;html=1;" parent="1" vertex="1">
          <mxGeometry x="330" y="650" width="120" height="50" as="geometry" />
        </mxCell>
        <mxCell id="B8SoWppWivi9vdMXzgWj-30" value="" style="endArrow=classic;html=1;rounded=0;" parent="1" edge="1">
          <mxGeometry width="50" height="50" relative="1" as="geometry">
            <mxPoint x="260" y="100" as="sourcePoint" />
            <mxPoint x="360" y="40" as="targetPoint" />
          </mxGeometry>
        </mxCell>
        <mxCell id="B8SoWppWivi9vdMXzgWj-31" value="Solicita cont" style="ellipse;whiteSpace=wrap;html=1;" parent="1" vertex="1">
          <mxGeometry x="350" width="120" height="50" as="geometry" />
        </mxCell>
        <mxCell id="B8SoWppWivi9vdMXzgWj-32" value="" style="endArrow=classic;html=1;rounded=0;entryX=0;entryY=0.625;entryDx=0;entryDy=0;entryPerimeter=0;" parent="1" edge="1" target="B8SoWppWivi9vdMXzgWj-33">
          <mxGeometry width="50" height="50" relative="1" as="geometry">
            <mxPoint x="270" y="280" as="sourcePoint" />
            <mxPoint x="450" y="330" as="targetPoint" />
          </mxGeometry>
        </mxCell>
        <mxCell id="B8SoWppWivi9vdMXzgWj-33" value="Vizualizare cerc particular" style="ellipse;whiteSpace=wrap;html=1;" parent="1" vertex="1">
          <mxGeometry x="430" y="190" width="120" height="80" as="geometry" />
        </mxCell>
        <mxCell id="B8SoWppWivi9vdMXzgWj-34" value="Da test si primeste nota" style="ellipse;whiteSpace=wrap;html=1;verticalAlign=top;" parent="1" vertex="1">
          <mxGeometry x="100" y="500" width="160" height="30" as="geometry" />
        </mxCell>
        <mxCell id="OSRzFcrtJDc0WdhAE6IN-2" value="" style="endArrow=classic;html=1;rounded=0;entryX=0.417;entryY=0;entryDx=0;entryDy=0;entryPerimeter=0;" edge="1" parent="1" target="B8SoWppWivi9vdMXzgWj-29">
          <mxGeometry width="50" height="50" relative="1" as="geometry">
            <mxPoint x="280" y="380" as="sourcePoint" />
            <mxPoint x="450" y="430" as="targetPoint" />
          </mxGeometry>
        </mxCell>
        <mxCell id="OSRzFcrtJDc0WdhAE6IN-3" value="" style="endArrow=open;endSize=12;dashed=1;html=1;rounded=0;" edge="1" parent="1">
          <mxGeometry width="160" relative="1" as="geometry">
            <mxPoint x="620" y="490" as="sourcePoint" />
            <mxPoint x="430" y="640" as="targetPoint" />
          </mxGeometry>
        </mxCell>
        <mxCell id="OSRzFcrtJDc0WdhAE6IN-5" value="" style="endArrow=open;endSize=12;dashed=1;html=1;rounded=0;" edge="1" parent="1">
          <mxGeometry x="0.0019" width="160" relative="1" as="geometry">
            <mxPoint x="450" y="-130" as="sourcePoint" />
            <mxPoint x="620" y="10" as="targetPoint" />
            <mxPoint as="offset" />
          </mxGeometry>
        </mxCell>
        <mxCell id="OSRzFcrtJDc0WdhAE6IN-6" value="" style="endArrow=open;endSize=12;dashed=1;html=1;rounded=0;" edge="1" parent="1">
          <mxGeometry width="160" relative="1" as="geometry">
            <mxPoint x="540" y="190" as="sourcePoint" />
            <mxPoint x="700" y="70" as="targetPoint" />
            <mxPoint as="offset" />
          </mxGeometry>
        </mxCell>
        <mxCell id="OSRzFcrtJDc0WdhAE6IN-8" value="" style="endArrow=open;endSize=12;dashed=1;html=1;rounded=0;entryX=1;entryY=0.4;entryDx=0;entryDy=0;entryPerimeter=0;" edge="1" parent="1" target="B8SoWppWivi9vdMXzgWj-29">
          <mxGeometry width="160" relative="1" as="geometry">
            <mxPoint x="510" y="650" as="sourcePoint" />
            <mxPoint x="380" y="720" as="targetPoint" />
          </mxGeometry>
        </mxCell>
        <mxCell id="OSRzFcrtJDc0WdhAE6IN-9" value="" style="endArrow=open;endSize=12;dashed=1;html=1;rounded=0;entryX=0.607;entryY=1.063;entryDx=0;entryDy=0;entryPerimeter=0;" edge="1" parent="1" target="B8SoWppWivi9vdMXzgWj-29">
          <mxGeometry width="160" relative="1" as="geometry">
            <mxPoint x="420" y="840" as="sourcePoint" />
            <mxPoint x="430" y="720" as="targetPoint" />
          </mxGeometry>
        </mxCell>
        <mxCell id="OSRzFcrtJDc0WdhAE6IN-10" value="" style="endArrow=open;endSize=12;dashed=1;html=1;rounded=0;entryX=0.06;entryY=0.768;entryDx=0;entryDy=0;entryPerimeter=0;" edge="1" parent="1" target="B8SoWppWivi9vdMXzgWj-29">
          <mxGeometry x="0.0007" width="160" relative="1" as="geometry">
            <mxPoint x="360" y="1000" as="sourcePoint" />
            <mxPoint x="320" y="670" as="targetPoint" />
            <mxPoint as="offset" />
          </mxGeometry>
        </mxCell>
        <mxCell id="OSRzFcrtJDc0WdhAE6IN-11" value="" style="endArrow=open;endSize=12;dashed=1;html=1;rounded=0;" edge="1" parent="1" target="B8SoWppWivi9vdMXzgWj-29">
          <mxGeometry width="160" relative="1" as="geometry">
            <mxPoint x="190" y="550" as="sourcePoint" />
            <mxPoint x="550" y="550" as="targetPoint" />
          </mxGeometry>
        </mxCell>
        <mxCell id="OSRzFcrtJDc0WdhAE6IN-12" value="" style="endArrow=classic;html=1;rounded=0;" edge="1" parent="1" target="B8SoWppWivi9vdMXzgWj-12">
          <mxGeometry width="50" height="50" relative="1" as="geometry">
            <mxPoint x="300" y="170" as="sourcePoint" />
            <mxPoint x="590" y="50" as="targetPoint" />
          </mxGeometry>
        </mxCell>
        <mxCell id="OSRzFcrtJDc0WdhAE6IN-13" value="" style="endArrow=classic;html=1;rounded=0;" edge="1" parent="1" source="B8SoWppWivi9vdMXzgWj-6">
          <mxGeometry width="50" height="50" relative="1" as="geometry">
            <mxPoint x="540" y="980" as="sourcePoint" />
            <mxPoint x="490" y="1020" as="targetPoint" />
            <Array as="points" />
          </mxGeometry>
        </mxCell>
        <mxCell id="OSRzFcrtJDc0WdhAE6IN-15" value="" style="endArrow=classic;html=1;rounded=0;" edge="1" parent="1">
          <mxGeometry width="50" height="50" relative="1" as="geometry">
            <mxPoint x="670" y="700" as="sourcePoint" />
            <mxPoint x="670" y="500" as="targetPoint" />
          </mxGeometry>
        </mxCell>
        <mxCell id="OSRzFcrtJDc0WdhAE6IN-18" value="" style="endArrow=classic;html=1;rounded=0;entryX=0.543;entryY=0.984;entryDx=0;entryDy=0;entryPerimeter=0;" edge="1" parent="1" target="B8SoWppWivi9vdMXzgWj-10">
          <mxGeometry width="50" height="50" relative="1" as="geometry">
            <mxPoint x="610" y="710" as="sourcePoint" />
            <mxPoint x="550" y="660" as="targetPoint" />
          </mxGeometry>
        </mxCell>
        <mxCell id="OSRzFcrtJDc0WdhAE6IN-19" value="" style="endArrow=classic;html=1;rounded=0;" edge="1" parent="1">
          <mxGeometry width="50" height="50" relative="1" as="geometry">
            <mxPoint x="540" y="860" as="sourcePoint" />
            <mxPoint x="490" y="860" as="targetPoint" />
          </mxGeometry>
        </mxCell>
      </root>
    </mxGraphModel>
  </diagram>
</mxfile>
